<?xml version="1.0" encoding="UTF-8" standalone="no"?>
<svg
   id="a"
   viewBox="0 0 400 399.99999"
   version="1.1"
   sodipodi:docname="christmas.svg"
   width="400"
   height="400"
   inkscape:version="1.4 (86a8ad7, 2024-10-11)"
   xmlns:inkscape="http://www.inkscape.org/namespaces/inkscape"
   xmlns:sodipodi="http://sodipodi.sourceforge.net/DTD/sodipodi-0.dtd"
   xmlns="http://www.w3.org/2000/svg"
   xmlns:svg="http://www.w3.org/2000/svg">
  <defs
     id="defs93" />
  <sodipodi:namedview
     id="namedview93"
     pagecolor="#ffffff"
     bordercolor="#000000"
     borderopacity="0.25"
     inkscape:showpageshadow="2"
     inkscape:pageopacity="0.0"
     inkscape:pagecheckerboard="0"
     inkscape:deskcolor="#d1d1d1"
     showgrid="false"
     inkscape:zoom="2"
     inkscape:cx="164.25"
     inkscape:cy="283.25"
     inkscape:window-width="2560"
     inkscape:window-height="1377"
     inkscape:window-x="1912"
     inkscape:window-y="-8"
     inkscape:window-maximized="1"
     inkscape:current-layer="a" />
  <rect
     style="fill:#ffffff;fill-opacity:1;stroke:#6efff3;stroke-width:0.188485;stroke-dashoffset:0.400305"
     id="rect93"
     width="399.81152"
     height="399.81152"
     x="0.094238281"
     y="0.094238281" />
  <g
     id="g35"
     transform="matrix(0.99601594,0,0,0.82977745,-59.516923,-32.406174)">
    <path
       style="fill:#193d15;fill-opacity:1;stroke:#6efff3;stroke-width:0.245669;stroke-dashoffset:0.400305"
       d="m 225.89949,151.60355 -24.62741,41.40991 -15.20667,14.51334 13.18459,5.2232 -8,21.5 -30.49866,22.36059 L 177.5,265.5 168.25,286.75 142.45223,313.66242 157,325 148.25,355.75 107.39021,383.10414 133.25,392.75 129,409.25 94.25,450 196.75,453.75 267.5,416.25 365,462 440,450.75 385.75,407 381,393 408.25,380.75 363.25,335 358,316.75 375.25,308 l -28,-20.25 -8.25,-20.5 18.25,-6.5 L 322.65685,231.72487 314,213 319,201.75 298.16421,178.91421 281.96447,148.37132 254.75,95.75 232.25,139 Z"
       id="path35"
       sodipodi:nodetypes="cccccccccccccccccccccccccccccccccccc" />
    <path
       d="m 241.22499,503.36897 c 0.86,-13.57 1.69,-55.76 2.49,-68.36 9.49,-2.6 22.16,-15.14 31.96,-17.82 1.7,14.53 0.95,68.44 2.71,83.4 0.07,-0.02 -0.2,0.14 -0.34,0.06 -9.36,-5.37 -18.74,-4.36 -28.21,-0.25 -2.77,1.2 -5.73,1.99 -8.6,2.96 z"
       id="path9"
       style="fill:#8f5800;fill-opacity:1"
       sodipodi:nodetypes="cccccccc" />
    <path
       d="m 461.35499,450.12897 c -32.38,17.95 -65.97,25.01 -101.81,19.7 -35.66,-5.28 -65.83,-21.59 -91.38,-47.1 -11.76,9.64 -24.42,17.74 -38.05,24.34 -21.07,10.18 -43.22,16.74 -66.46,19.13 -13.32,1.37 -26.79,2.3 -40.16,2.02 -21.18,-0.44 -41.56,-4.88 -59.96,-16.14 -1.08,-0.66 -2.13,-1.39 -3.78,-2.46 1.93,-0.99 3.24,-1.71 4.58,-2.36 22,-10.57 42.69,-23.22 61.65,-38.64 1.46,-1.19 3.31,-3.71 5.08,-1.54 1.19,1.46 1.71,4.9 0.79,6.35 -2.12,3.36 -5.06,6.33 -8.12,8.91 -2.48,2.09 -5.62,3.38 -8.43,5.3 9.22,-0.25 18.38,-1.24 27.25,-3.83 8.86,-2.59 17.59,-5.64 26.61,-8.16 -7.17,10.36 -17.48,16.71 -28.72,21.73 -11.33,5.06 -23.46,6.95 -35.62,8.62 30.61,0.88 59.96,-3.96 87.35,-19.15 -0.76,4.16 -3.55,6.94 -6.53,9.44 -3.07,2.57 -6.44,4.79 -9.68,7.17 l 0.38,0.94 c 6.18,-2.51 12.59,-4.59 18.49,-7.67 5.8,-3.02 11.05,-7.1 16.61,-10.61 1.2,-0.76 2.7,-1.04 4.06,-1.53 -0.08,1.66 0.38,3.65 -0.36,4.93 -1.61,2.75 -3.85,5.14 -6.1,8.02 18.79,-5.99 36.86,-12.76 52.09,-25.27 3.17,-2.6 5.58,-6.14 8.34,-9.25 13.11,19.67 33.86,28.6 55.49,36.16 l 0.77,-0.94 c -2.09,-1.92 -4.31,-3.72 -6.22,-5.81 -1.44,-1.57 -2.7,-3.4 -3.61,-5.31 -0.44,-0.94 0.09,-2.35 0.19,-3.54 0.98,0.44 2.21,0.64 2.89,1.35 7.34,7.67 16.14,13.13 25.87,17.13 3.93,1.62 8.07,2.74 12.12,4.09 0.22,-0.32 0.44,-0.64 0.66,-0.96 -0.85,-0.78 -1.8,-1.48 -2.52,-2.36 -3.07,-3.78 -6.33,-7.44 -8.96,-11.51 -1.09,-1.69 -0.75,-4.29 -0.45,-6.81 20.57,19.87 45.03,26.62 72.32,24.93 l 0.34,-1.26 c -2.91,-0.44 -5.82,-0.85 -8.73,-1.32 -13.87,-2.22 -26.12,-7.82 -36.04,-17.87 -2.65,-2.68 -4.64,-6.06 -6.65,-9.29 -0.56,-0.9 -0.12,-2.42 -0.13,-3.66 1.08,0.26 2.32,0.27 3.23,0.82 10.54,6.38 21.85,10.75 33.96,13.04 1.14,0.22 2.31,0.26 3.76,-0.21 -0.66,-0.55 -1.32,-1.1 -1.99,-1.64 -6.88,-5.57 -13.79,-11.1 -20.61,-16.74 -1.08,-0.89 -2.1,-2.12 -2.57,-3.4 -0.35,-0.97 -0.15,-2.91 0.48,-3.28 0.91,-0.55 2.82,-0.57 3.63,0.05 3.14,2.39 5.92,5.25 9,7.73 18.71,15.07 39.76,26.13 61.6,35.84 1.08,0.48 2.14,0.99 4.04,1.88 z"
       id="path1"
       style="fill:#428d33;fill-opacity:1" />
    <path
       d="m 394.51499,378.62897 c -20.2,-4.86 -33.6,-15.84 -32.59,-28.08 5.33,4 10.51,7.84 18.08,7.6 -8.18,-8.19 -17.24,-15.26 -18.52,-28.52 19.16,25.16 44.11,41.14 71.42,54.76 -6.76,4.68 -13.91,7 -21.31,8.35 -35.64,6.52 -68.52,-1 -98.76,-20.38 -18.29,-11.73 -33.01,-26.95 -42.28,-46.91 -1.68,-3.61 -2.8,-7.49 -4.25,-11.44 5.6,7.03 10.43,14.25 16.44,20.3 6.19,6.25 13.35,11.61 20.43,16.88 3.8,2.83 5.58,1.97 7.66,-2.4 0.9,1.23 1.71,2.29 2.46,3.39 4.97,7.35 11.38,12.96 19.9,15.75 4.03,1.32 4.98,0.56 5.8,-3.82 5.34,4.98 10.32,10.87 18.96,6.82 10.98,7.4 23.38,9.51 36.55,7.72 z"
       id="path2"
       style="fill:#428d33;fill-opacity:1" />
    <path
       d="m 88.81499,381.77897 c 12.36,-5.28 24.55,-10.14 36.41,-15.68 7.02,-3.27 13.51,-7.67 20.3,-11.44 1.25,-0.7 2.59,-2.62 4.3,-0.47 1.67,2.1 0.22,3.54 -1.22,4.48 -3.67,2.4 -7.51,4.54 -11.34,6.69 -0.96,0.54 -2.11,0.74 -3.01,1.94 1.66,-0.19 3.36,-0.2 4.96,-0.62 8.96,-2.36 17.59,-5.45 24.95,-11.35 0.8,-0.64 2.04,-0.75 3.07,-1.11 -0.21,1.14 -0.07,2.53 -0.67,3.39 -7.89,11.3 -19.28,17.31 -32.25,20.62 -4.83,1.24 -9.88,1.63 -14.83,2.43 -0.75,0.12 -1.5,0.32 -2.52,0.55 0.47,0.55 0.69,1.02 0.9,1.01 18.62,-0.73 36.73,-3.74 52.7,-14.03 5.77,-3.72 10.6,-8.87 15.92,-13.29 0.75,-0.62 1.88,-0.78 2.83,-1.15 0.25,1.06 1.03,2.38 0.66,3.13 -1.08,2.22 -2.61,4.21 -3.68,6.66 24.36,-8.6 42.83,-25.08 58.84,-44.86 l 0.91,0.69 c -4.36,7.07 -8.44,14.34 -13.14,21.18 -16.33,23.78 -37.46,41.57 -65.31,50.37 -20.25,6.39 -40.75,8.26 -61.3,1.13 -6.58,-2.28 -12.64,-5.56 -17.5,-10.27 z"
       id="path3"
       style="fill:#428d33;fill-opacity:1" />
    <path
       d="m 165.74499,296.20897 c 4.93,-1.89 9.87,-3.77 14.8,-5.66 l 0.73,0.5 c -0.83,1.37 -1.43,2.99 -2.54,4.08 -8.71,8.58 -19.07,14.34 -30.81,17.67 -0.98,0.28 -1.95,0.59 -2.73,1.42 21.29,-1.97 40.39,-9.34 56.62,-24.33 1.85,4.41 -1.91,6.08 -2.94,9.39 13.34,-7.09 22.45,-17.73 30.66,-29.58 -0.62,1.68 -1.17,3.39 -1.88,5.03 -6.91,16.07 -16.79,29.93 -31.21,40.03 -14.72,10.31 -31.24,13.94 -49.09,11.92 -7.38,-0.83 -14.33,-2.76 -20.55,-6.85 -2.06,-1.36 -3.83,-3.16 -6.14,-5.11 1.74,-0.98 2.89,-1.76 4.14,-2.33 15.15,-6.85 28.93,-15.92 42.22,-25.8 1.41,-1.05 2.77,-2.77 4.51,-0.6 1.58,1.96 0.55,3.64 -0.95,5.03 -1.64,1.52 -3.44,2.87 -5.16,4.3 l 0.33,0.89 z"
       id="path4"
       style="fill:#428d33;fill-opacity:1" />
    <path
       d="m 269.21499,267.22897 c 7.59,6.47 14.84,13.08 22.57,19.07 4.11,3.18 9.05,5.3 13.66,7.84 2.48,1.36 4.93,2.03 6.77,-1.92 10.9,11.07 24.12,15.79 39.04,16 4.12,0.06 8.24,-0.45 12.36,-0.69 0,-0.46 0.02,-0.92 0.03,-1.39 -1.99,-0.16 -3.97,-0.31 -5.96,-0.49 -8.22,-0.77 -15.75,-3.2 -21.22,-9.78 -1.43,-1.72 -1.99,-4.15 -2.38,-6.67 7.15,4.36 13.96,8.56 22.84,9.37 -3.88,-3.34 -7.27,-6.24 -10.62,-9.18 -0.72,-0.63 -1.54,-1.3 -1.91,-2.12 -0.52,-1.15 -0.65,-2.47 -0.95,-3.71 1.11,0.29 2.46,0.27 3.3,0.92 12.88,9.91 26.47,18.52 42.07,23.54 2.49,0.8 4.99,1.6 7.48,2.41 0.09,0.03 0.13,0.19 0.35,0.53 -6.39,5.53 -14.08,8.34 -22.19,9.73 -30.49,5.23 -57.31,-2.9 -80.71,-22.85 -8.73,-7.44 -16.28,-15.92 -22.11,-25.85 -0.89,-1.51 -1.6,-3.13 -2.41,-4.75 z"
       id="path5"
       style="fill:#428d33;fill-opacity:1" />
    <path
       d="m 329.23499,241.44897 c -1.65,-0.87 -3.46,-1.55 -4.92,-2.66 -3.12,-2.37 -6.21,-4.83 -8.96,-7.6 -0.68,-0.69 -0.51,-3.15 0.21,-4.01 0.55,-0.66 3.03,-0.66 3.88,0.02 15.49,12.22 32.24,22.38 49.92,31.07 0.73,0.36 1.37,0.92 2.73,1.87 -2.71,2.2 -4.98,4.48 -7.63,6.12 -8.87,5.49 -18.86,6.87 -28.99,6.53 -29.97,-1.02 -50.91,-16.5 -65.54,-41.74 -0.22,-0.39 -0.34,-0.84 -0.3,-1.52 10.14,10.53 22.02,18.04 36.34,22 0.16,-1.47 0.3,-2.8 0.42,-3.99 6.3,2.78 12.26,6.12 18.65,8.04 6.36,1.91 13.15,2.4 19.74,3.51 l 0.3,-1.33 c -0.67,-0.34 -1.3,-0.86 -2.01,-0.99 -11.74,-2.15 -20.86,-9.2 -30.1,-16.04 -0.48,-0.35 -1.08,-0.76 -1.24,-1.27 -0.3,-0.9 -0.31,-1.9 -0.44,-2.86 0.94,-0.04 1.99,-0.39 2.8,-0.09 4.57,1.7 9.08,3.57 13.62,5.35 0.39,0.15 0.86,0.09 1.3,0.12 l 0.21,-0.54 z"
       id="path6"
       style="fill:#428d33;fill-opacity:1" />
    <path
       d="m 250.52499,132.38897 c -2.02,15.07 -35.14,30.24 -47.39,21.13 1.21,-1.03 2.2,-2.19 3.45,-2.91 26.47,-15.17 41.81,-38.31 48.5,-67.660003 0.05,-0.23 0.18,-0.43 0.5,-1.18 1.15,4.9 1.99,9.42 3.28,13.8 7.12,24.110003 21.96,41.890003 44.14,53.660003 1.65,0.88 2.94,2.42 4.4,3.66 -1.92,0.71 -3.81,1.95 -5.75,2.04 -19.14,0.93 -37.48,-10.52 -44.77,-27.78 -0.67,-1.59 -1.08,-3.29 -1.32,-5.11 4.95,6.46 10.48,12.14 17.62,16.03 0.66,0.36 1.56,0.28 2.61,0.15 -11.53,-10.24 -18.94,-22.68 -21.13,-38.230003 -3.11,7.580003 -6.09,14.850003 -8.69,21.170003 0.15,2.14 0.86,3.98 0.24,4.97 -2.27,3.59 -4.78,7.08 -7.58,10.26 -3.44,3.9 -7.27,7.44 -10.76,10.97 3.43,0.54 8.02,-2.43 22.65,-14.98 z"
       id="path8"
       style="fill:#428d33;fill-opacity:1" />
    <path
       d="m 275.90788,104.11405 c -6.1,-4.04 -11.95,-7.759996 -17.61,-11.749996 -2.02,-1.43 -3.4,-1.36 -5.38,0 -5.79,4 -11.74,7.779996 -18.56,12.269996 1.42,-5.919996 2.53,-10.869996 3.81,-15.769996 2.2,-8.43 2.23,-8.41 -4.46,-13.68 -3.77,-2.97 -7.48,-6 -11.21,-9.02 -0.16,-0.13 -0.23,-0.4 -0.6,-1.08 5.56,-0.72 10.92,-1.83 16.3,-1.98 5.32,-0.14 8.45,-1.97 10.15,-7.24 1.79,-5.55 4.49,-10.81 7.07,-16.81 2.68,6.65 5.32,12.7 7.55,18.9 1.06,2.94 2.79,3.97 5.74,4.26 6.87,0.67 13.71,1.64 21.53,2.6 -5.32,4.17 -9.69,8.26 -14.69,11.32 -4.46,2.74 -5.07,5.73 -3.56,10.33 1.6,4.87 2.55,9.95 3.74,14.949996 0.18,0.75 0.12,1.56 0.19,2.7 z"
       id="path7"
       style="fill:#ffff04;fill-opacity:1" />
    <path
       d="m 301.74499,520.62897 c -5.41,1.11 -9.94,-0.16 -14.31,-2.08 -3.5,-1.54 -6.91,-3.3 -10.33,-5.01 -5.51,-2.76 -11.08,-2.84 -16.56,-0.11 -4.07,2.03 -8.19,2.39 -12.54,1.27 -4.83,-1.25 -9.19,0.03 -13.37,2.46 -4.63,2.69 -9.55,4.42 -15.03,3.84 -0.68,-0.07 -1.34,-0.24 -1.96,-0.35 0,-0.47 -0.08,-0.74 0.01,-0.91 0.7,-1.23 1.44,-2.45 2.16,-3.67 -1.48,-0.56 -3.04,-1.73 -4.43,-1.56 -4.72,0.59 -9.38,1.71 -14.08,2.53 -4.45,0.78 -8.88,0.95 -13.14,-1.24 9.37,-0.69 16.73,-5.93 24.5,-10.26 3.02,-1.68 6.09,-3.42 9.34,-4.54 3.79,-1.31 25.22,-13.16 24.42,-9.4 -3.69135,6.84234 34.41362,4.3891 29.27,-2.53 1.7,0 21.64,12.73 23.07,13.36 4.36,1.93 8.58,4.2 12.74,6.55 6.26,3.54 12.69,6.53 20.92,7.23 -6.31,2.54 -11.78,2.38 -17.33,0.94 -3.12,-0.81 -6.25,-1.6 -9.41,-2.22 -1.5,-0.29 -3.13,-0.39 -4.62,-0.11 -1.03,0.19 -1.91,1.18 -2.85,1.81 0.64,0.91 1.24,1.85 1.93,2.72 0.32,0.4 0.81,0.68 1.59,1.31 z"
       id="path10"
       style="fill:#8f5800;fill-opacity:1"
       sodipodi:nodetypes="ccccccccccccccccccccccccccc" />
    <path
       d="m 237.18499,216.11897 c -1.52,3.17 -2.86,6.43 -4.58,9.49 -7.94,14.1 -17.91,26.41 -32.11,34.65 -13.75,7.97 -28.32,9.92 -43.4,4.24 -3.78,-1.42 -7.11,-4.04 -10.64,-6.11 l 0.28,-1.24 c 1.32,-0.68 2.61,-1.45 3.98,-2.03 13.86,-5.81 26.83,-13.17 38.91,-22.12 1.33,-0.99 2.9,-2.62 4.14,-0.47 0.61,1.05 0.31,3.35 -0.5,4.37 -3.81,4.87 -9.19,7.5 -14.89,9.54 -0.77,0.28 -1.53,0.57 -2.27,0.91 -0.13,0.06 -0.11,0.41 -0.4,1.61 7.35,-2.33 14.24,-4.52 21.12,-6.7 l 0.44,1.24 c -7.82,8.46 -18.31,11.79 -29.44,14.35 6.1,2.78 26.02,-3.29 39.44,-11.98 12.03,-7.79 22.19,-17.47 29.93,-29.76 z"
       id="path11"
       style="fill:#428d33;fill-opacity:1" />
    <path
       d="m 269.31499,180.93897 c 12.21,12.11 25.62,20.52 42.56,22.28 -0.81,-0.45 -1.66,-0.84 -2.42,-1.36 -5.32,-3.59 -10.77,-7.03 -15.86,-10.92 -1.7,-1.3 -2.49,-3.78 -3.7,-5.72 l 0.86,-0.95 c 4.25,1.65 8.5,3.29 12.75,4.94 -4.87,-5.17 -9.41,-10.1 -10.61,-17.4 3.54,3.24 7.07,6.49 10.61,9.73 8.81,8.05 18.5,14.79 29.38,19.76 3.97,1.81 4.18,3.03 0.99,6.11 -7.05,6.82 -15.72,9.33 -25.12,7.86 -19.09,-2.98 -31.24,-14.92 -39.1,-31.89 -0.22,-0.48 -0.16,-1.1 -0.33,-2.44 z"
       id="path12"
       style="fill:#428d33;fill-opacity:1" />
    <path
       d="m 189.00499,206.70897 c 9.21,-0.36 17.07,-3.95 24.19,-9.46 1.27,-0.98 2.91,-1.49 4.38,-2.21 -0.5,1.7 -0.8,3.5 -1.56,5.07 -0.6,1.24 -1.76,2.21 -2.48,3.49 11.93,-5.24 21.27,-13.53 28.56,-24.34 -1.21,6.59 -4.62,12.06 -8.72,17 -8.58,10.33 -19.04,17.83 -32.74,19.65 -9.24,1.23 -18.22,0.66 -25.86,-5.63 -3.78,-3.11 -3.61,-4.33 0.77,-6.39 14.63,-6.88 27.27,-16.35 37.67,-28.79 0.8,-0.95 2.45,-1.18 3.71,-1.75 -0.14,1.41 0.16,3.09 -0.51,4.16 -1.43,2.29 -3.36,4.26 -5.56,6.94 1.75,-0.48 2.97,-0.82 5.22,-1.44 -6.03,12.22 -15.33,19.23 -27.07,23.7 z"
       id="path13"
       style="fill:#428d33;fill-opacity:1" />
    <path
       d="m 231.16499,410.06897 c -5.64,0.04 -10.61,-4.81 -10.67,-10.41 -0.06,-5.66 4.72,-10.44 10.5,-10.5 5.72,-0.06 10.32,4.64 10.35,10.56 0.02,5.64 -4.56,10.3 -10.17,10.34 z"
       id="path14"
       style="fill:#ff0404;fill-opacity:1" />
    <path
       d="m 333.55499,409.44897 c -0.02,5.68 -4.59,10.28 -10.25,10.34 -5.79,0.05 -10.34,-4.69 -10.22,-10.67 0.11,-5.72 4.69,-10.21 10.4,-10.2 5.48,0.01 10.09,4.84 10.07,10.54 z"
       id="path15"
       style="fill:#0b04ff;fill-opacity:1" />
    <path
       d="m 221.92499,330.96897 c 0.02,5.48 -4.47,9.92 -10.09,9.96 -5.74,0.05 -10.11,-4.17 -10.16,-9.81 -0.05,-5.46 4.49,-10.23 9.85,-10.34 5.57,-0.11 10.37,4.59 10.4,10.18 z"
       id="path16"
       style="fill:#ff0404;fill-opacity:1" />
    <path
       d="m 233.44499,245.70897 c 4.1,0.04 7.2,2.99 7.17,6.82 -0.03,3.91 -3.17,6.99 -7.12,6.98 -3.95,0 -7.28,-3.42 -7.18,-7.36 0.09,-3.66 3.21,-6.47 7.13,-6.44 z"
       id="path17"
       style="fill:#ff0404;fill-opacity:1" />
    <path
       d="m 260.12499,368.69897 c 0,3.69 -2.86,6.58 -6.59,6.66 -3.56,0.08 -6.89,-3.3 -6.84,-6.95 0.05,-3.52 3.24,-6.49 6.9,-6.41 3.73,0.07 6.54,2.95 6.54,6.7 z"
       id="path18"
       style="fill:#0b04ff;fill-opacity:1" />
    <path
       d="m 286.90499,388.44897 c 3.67,0.04 6.47,3.03 6.33,6.77 -0.11,3.22 -3.07,6.07 -6.35,6.12 -3.46,0.05 -6.68,-3.23 -6.61,-6.72 0.07,-3.4 3.09,-6.22 6.62,-6.17 z"
       id="path19"
       style="fill:#ff0404;fill-opacity:1" />
    <path
       d="m 190.21499,401.18897 c 3.67,0.09 6.43,2.88 6.32,6.4 -0.11,3.5 -3.11,6.22 -6.68,6.07 -3.42,-0.14 -6.24,-3.26 -6.09,-6.72 0.16,-3.51 2.79,-5.85 6.45,-5.76 z"
       id="path20"
       style="fill:#ffff04;fill-opacity:1" />
    <path
       d="m 249.15499,198.52897 c 0.02,-3.51 2.6,-6.05 6.11,-6.02 3.51,0.03 6.34,2.96 6.22,6.44 -0.12,3.31 -2.98,5.91 -6.43,5.81 -3.54,-0.1 -5.93,-2.62 -5.91,-6.23 z"
       id="path21"
       style="fill:#0b04ff;fill-opacity:1" />
    <path
       d="m 260.82499,277.25897 c -0.02,3.43 -2.69,5.97 -6.23,5.96 -3.37,0 -6.04,-2.76 -6.03,-6.22 0,-3.39 2.75,-6.01 6.25,-5.97 3.39,0.04 6.04,2.78 6.02,6.22 z"
       id="path22"
       style="fill:#ffff04;fill-opacity:1" />
    <path
       d="m 245.66499,225.62897 c 3.29,0.02 5.82,2.63 5.77,5.97 -0.04,3.13 -2.64,5.59 -5.83,5.53 -3.21,-0.07 -5.69,-2.5 -5.73,-5.63 -0.05,-3.38 2.41,-5.88 5.79,-5.86 z"
       id="path23"
       style="fill:#07ff04;fill-opacity:1" />
    <path
       d="m 274.22499,256.10897 c -0.24,2.96 -2.84,5.05 -6.01,4.83 -3.03,-0.21 -5.32,-2.79 -5.13,-5.77 0.2,-3.13 2.91,-5.35 6.16,-5.05 2.81,0.26 5.2,3.14 4.98,5.98 z"
       id="path24"
       style="fill:#0b04ff;fill-opacity:1" />
    <path
       d="m 294.87499,222.79897 c 3.14,0.25 5.65,3.12 5.31,6.08 -0.33,2.93 -2.93,4.92 -6.14,4.71 -3.01,-0.2 -5.29,-2.79 -5.09,-5.8 0.19,-2.95 2.89,-5.22 5.92,-4.99 z"
       id="path25"
       style="fill:#ffff04;fill-opacity:1" />
    <path
       d="m 340.27499,354.64897 c -3.05,-0.07 -4.92,-2.2 -4.78,-5.43 0.12,-2.79 2.42,-4.85 5.24,-4.67 2.62,0.17 5.01,2.63 5.04,5.2 0.03,2.76 -2.46,4.97 -5.5,4.9 z"
       id="path26"
       style="fill:#07ff04;fill-opacity:1" />
    <path
       d="m 176.20499,336.63897 c 2.48,0.09 4.63,2.43 4.62,5.01 -0.01,2.7 -2.03,4.53 -4.9,4.43 -2.8,-0.1 -4.59,-2 -4.54,-4.83 0.05,-2.71 2.15,-4.72 4.82,-4.62 z"
       id="path27"
       style="fill:#0b04ff;fill-opacity:1" />
    <path
       d="m 223.39499,212.37897 c 2.45,0.09 4.55,2.49 4.46,5.09 -0.09,2.64 -2.33,4.61 -5.04,4.44 -2.63,-0.17 -4.61,-2.38 -4.52,-5.05 0.08,-2.45 2.5,-4.57 5.09,-4.48 z"
       id="path28"
       style="fill:#ff0404;fill-opacity:1" />
    <path
       d="m 201.18499,278.49897 c 0.01,2.58 -2.06,3.82 -4.62,3.83 -2.71,0.01 -4.42,-1.62 -4.37,-4.57 0.05,-2.86 1.49,-4.47 4.38,-4.56 2.68,-0.09 4.67,2.04 4.61,5.31 z"
       id="path29"
       style="fill:#07ff04;fill-opacity:1" />
    <path
       d="m 311.25499,326.56897 c -0.05,3.06 -1.66,4.73 -4.37,4.81 -2.77,0.08 -4.36,-1.63 -4.51,-4.46 -0.14,-2.66 1.72,-4.8 4.25,-4.65 2.72,0.16 4.34,1.68 4.62,4.3 z"
       id="path30"
       style="fill:#ffff04;fill-opacity:1" />
    <path
       d="m 260.32499,342.47897 c -0.3,2.66 -1.92,4.22 -4.68,4.14 -2.82,-0.09 -4.26,-1.88 -4.25,-4.68 0,-3.02 2.03,-4.33 4.62,-4.28 2.73,0.05 4.25,1.84 4.32,4.83 z"
       id="path31"
       style="fill:#ffff04;fill-opacity:1" />
    <path
       d="m 233.54499,307.85897 c -2.77,0.09 -4.08,-1.69 -4.05,-4.43 0.03,-2.8 1.62,-4.39 4.53,-4.3 2.88,0.09 4.41,1.75 4.4,4.52 0,2.87 -1.74,4.25 -4.88,4.22 z"
       id="path32"
       style="fill:#ffff04;fill-opacity:1" />
    <path
       d="m 309.87499,277.05897 c 2.44,0.45 4.18,1.8 4.23,4.67 0.04,2.5 -2.14,4.6 -4.64,4.33 -2.69,-0.29 -4.43,-1.75 -4.5,-4.61 -0.06,-2.45 2.18,-4.47 4.9,-4.39 z"
       id="path33"
       style="fill:#0b04ff;fill-opacity:1" />
    <path
       d="m 271.59499,212.34897 c 0.31,-2.34 1.5,-4.03 4.31,-4.01 2.81,0.02 4.14,1.82 4.27,4.31 0.14,2.76 -1.79,4.25 -4.28,4.21 -2.47,-0.03 -4.22,-1.49 -4.3,-4.52 z"
       id="path34"
       style="fill:#ff0404;fill-opacity:1" />
    <path
       d="m 262.35499,160.18897 c -2.5,-0.11 -3.87,-1.54 -3.78,-4.31 0.09,-2.69 1.73,-3.78 4.19,-3.79 2.85,0 4.11,1.85 4.09,4.37 -0.02,2.56 -1.69,3.76 -4.5,3.72 z"
       id="path36"
       style="fill:#ff0404;fill-opacity:1" />
    <path
       d="m 225.39499,160.20897 c 0.98,1.37 2.77,2.78 2.71,4.11 -0.06,1.19 -2,3.01 -3.35,3.27 -2.03,0.39 -3.89,-1.09 -3.47,-3.43 0.25,-1.41 1.63,-2.61 2.5,-3.91 z"
       id="path48"
       style="fill:#07ff04;fill-opacity:1" />
    <path
       d="m 214.76499,228.66897 c -2.2,1.62 -3.6,3.43 -4.69,3.25 -1.43,-0.23 -2.61,-2.01 -3.89,-3.13 1.23,-1.2 2.32,-3.1 3.73,-3.38 1.08,-0.21 2.56,1.62 4.86,3.25 z"
       id="path49"
       style="fill:#ffff04;fill-opacity:1" />
    <path
       d="m 280.35499,309.28897 c 1.56,2.54 3.2,4.05 3.11,5.44 -0.08,1.12 -2.15,2.75 -3.54,2.98 -2.21,0.37 -3.74,-1.37 -3.2,-3.58 0.34,-1.42 1.85,-2.55 3.63,-4.84 z"
       id="path50"
       style="fill:#07ff04;fill-opacity:1" />
    <path
       d="m 281.41499,173.23897 c -1.55,-2.25 -3.24,-3.63 -3.1,-4.8 0.14,-1.23 2.03,-2.25 3.16,-3.37 1.14,1.26 2.79,2.37 3.2,3.83 0.23,0.82 -1.59,2.23 -3.26,4.34 z"
       id="path51"
       style="fill:#0b04ff;fill-opacity:1" />
    <path
       d="m 222.65499,180.97897 c 1.25,-0.91 2.6,-2.65 3.73,-2.52 1.28,0.15 3.23,1.92 3.3,3.08 0.06,1.1 -1.8,3.05 -3.06,3.27 -1.13,0.21 -2.59,-1.42 -3.9,-2.24 -0.02,-0.53 -0.05,-1.06 -0.07,-1.6 z"
       id="path52"
       style="fill:#ff0404;fill-opacity:1" />
    <path
       d="m 263.07499,299.18897 c -1.66,-2.11 -3.45,-3.43 -3.26,-4.35 0.28,-1.36 1.95,-2.43 3.04,-3.63 1.19,1.11 3.08,2.07 3.35,3.37 0.21,1.01 -1.58,2.45 -3.13,4.61 z"
       id="path53"
       style="fill:#ff0404;fill-opacity:1" />
    <path
       d="m 244.79499,162.19897 c -2.08,1.49 -3.39,3.16 -4.45,3.01 -1.33,-0.19 -2.45,-1.86 -3.66,-2.88 1.08,-1.19 2.09,-3.23 3.25,-3.33 1.25,-0.1 2.64,1.64 4.85,3.2 z"
       id="path54"
       style="fill:#ffff04;fill-opacity:1" />
  </g>
</svg>
